<svg width="52" height="47" viewBox="0 0 52 47" fill="none" xmlns="http://www.w3.org/2000/svg">
<mask id="mask0_106_5" style="mask-type:alpha" maskUnits="userSpaceOnUse" x="0" y="0" width="52" height="47">
<g clip-path="url(#clip0_106_5)">
<path d="M51.2209 23.5449C51.2209 28.125 49.7421 32.6023 46.9713 36.4105C44.2005 40.2188 40.2623 43.1869 35.6547 44.9397C31.0471 46.6924 25.977 47.151 21.0856 46.2575C16.1941 45.3639 11.7011 43.1584 8.17455 39.9197C4.64803 36.6811 2.24644 32.5548 1.27348 28.0627C0.300514 23.5706 0.799873 18.9144 2.70841 14.6829C4.61695 10.4514 7.84895 6.83466 11.9957 4.29008C16.1424 1.7455 21.0177 0.387329 26.005 0.387329C32.6904 0.39397 39.1 2.83591 43.8274 7.17735C48.5547 11.5188 51.2137 17.4052 51.2209 23.5449ZM18.831 20.8161C18.0431 21.5399 17.6005 22.5215 17.6005 23.5449C17.6005 24.5683 18.0431 25.5498 18.831 26.2736L28.6505 35.2915L31.6218 32.5628L21.8023 23.5449L31.7017 14.4517L28.7367 11.7229L18.831 20.8161Z" fill="black"/>
</g>
</mask>
<g mask="url(#mask0_106_5)">
<rect x="-2" y="-4" width="55" height="55" fill="#FF1111"/>
</g>
<defs>
<clipPath id="clip0_106_5">
<rect width="50.432" height="46.3151" fill="white" transform="matrix(-1 0 0 1 51.2209 0.387329)"/>
</clipPath>
</defs>
</svg>
