<svg width="52" height="47" viewBox="0 0 52 47" fill="none" xmlns="http://www.w3.org/2000/svg">
<mask id="mask0_106_6" style="mask-type:alpha" maskUnits="userSpaceOnUse" x="0" y="0" width="52" height="47">
<g clip-path="url(#clip0_106_6)">
<path d="M0.60083 23.5449C0.60083 28.125 2.07972 32.6023 4.85049 36.4105C7.62126 40.2188 11.5595 43.1869 16.1671 44.9397C20.7747 46.6924 25.8448 47.151 30.7362 46.2575C35.6276 45.3639 40.1207 43.1584 43.6472 39.9197C47.1737 36.6811 49.5753 32.5548 50.5483 28.0627C51.5213 23.5706 51.0219 18.9144 49.1134 14.6829C47.2048 10.4514 43.9728 6.83466 39.8261 4.29008C35.6793 1.7455 30.8041 0.387329 25.8168 0.387329C19.1313 0.39397 12.7218 2.83591 7.99441 7.17735C3.26706 11.5188 0.608061 17.4052 0.60083 23.5449ZM32.9908 20.8161C33.7787 21.5399 34.2213 22.5215 34.2213 23.5449C34.2213 24.5683 33.7787 25.5498 32.9908 26.2736L23.1712 35.2915L20.2 32.5628L30.0195 23.5449L20.1201 14.4517L23.0851 11.7229L32.9908 20.8161Z" fill="black"/>
</g>
</mask>
<g mask="url(#mask0_106_6)">
<rect x="-2" y="-8" width="57" height="68" fill="#FF1111"/>
</g>
<defs>
<clipPath id="clip0_106_6">
<rect width="50.432" height="46.3151" fill="white" transform="translate(0.60083 0.387329)"/>
</clipPath>
</defs>
</svg>
